<svg height="368pt" viewBox="0 0 368 368" width="368pt" xmlns="http://www.w3.org/2000/svg"><path d="m360 0h-352c-4.425781 0-8 3.574219-8 8v352c0 4.425781 3.574219 8 8 8h352c4.425781 0 8-3.574219 8-8v-352c0-4.425781-3.574219-8-8-8zm-56 64v288h-112v-176h56c4.425781 0 8-3.574219 8-8v-48c0-4.425781-3.574219-8-8-8h-56v-48zm-64 64v32h-112v-32zm-64-16h-56c-4.425781 0-8 3.574219-8 8v48c0 4.425781 3.574219 8 8 8h56v176h-112v-288h112zm176 240h-32v-296c0-4.425781-3.574219-8-8-8h-256c-4.425781 0-8 3.574219-8 8v296h-32v-336h336zm0 0"/></svg>