<?xml version="1.0" encoding="iso-8859-1"?>
<!-- Generator: Adobe Illustrator 17.1.0, SVG Export Plug-In . SVG Version: 6.00 Build 0)  -->
<!DOCTYPE svg PUBLIC "-//W3C//DTD SVG 1.1//EN" "http://www.w3.org/Graphics/SVG/1.1/DTD/svg11.dtd">
<svg version="1.1" id="Capa_1" xmlns="http://www.w3.org/2000/svg" xmlns:xlink="http://www.w3.org/1999/xlink" x="0px" y="0px"
	 viewBox="0 0 254.533 254.533" style="enable-background:new 0 0 254.533 254.533;" xml:space="preserve">
<path d="M127.267,0C57.092,0,0,57.092,0,127.267s57.092,127.267,127.267,127.267s127.267-57.092,127.267-127.267
	S197.441,0,127.267,0z M127.269,226.336c-22.818,0-43.856-7.759-60.624-20.771l32.015-32.015v16.055
	c0,3.043,2.476,5.518,5.519,5.518h7.209c3.043,0,5.518-2.476,5.518-5.518v-6.577h62.016v6.577c0,3.043,2.476,5.518,5.519,5.518
	h7.207c3.043,0,5.519-2.476,5.519-5.518v-26.337c0-3.771-1.165-9.679-2.597-13.169l-0.879-2.141h0.666
	c3.043,0,5.519-2.476,5.519-5.519v-3.09c0-2.607-1.797-4.499-4.273-4.499c-0.452,0-0.917,0.065-1.38,0.192l-5.241,1.443
	l-5.442-13.257c-1.541-3.756-6.099-6.812-10.159-6.812H155.8v-0.009l49.769-49.769c13.013,16.768,20.771,37.807,20.771,60.625
	C226.34,181.893,181.896,226.336,127.269,226.336z M182.277,149.047h-59.114l28.223-28.223h19.306c2.428,0,5.17,1.838,6.092,4.085
	l8.232,20.053C185.938,147.209,184.705,149.047,182.277,149.047z M186.544,162.821v7.505c0,1.215-0.993,2.208-2.208,2.208h-15.637
	c-1.215,0-2.208-0.993-2.208-2.208v-7.505c0-1.215,0.993-2.208,2.208-2.208h15.637C185.551,160.613,186.544,161.606,186.544,162.821
	z M72.184,92.036c-2.428,0-3.66-1.838-2.738-4.085l8.229-20.052c0.922-2.247,3.664-4.085,6.092-4.085h45.561
	c2.428,0,5.17,1.838,6.092,4.085l8.232,20.053c0.922,2.246-0.311,4.084-2.738,4.084H72.184z M87.821,105.812v7.506
	c0,1.215-0.993,2.208-2.208,2.208H69.977c-1.215,0-2.208-0.993-2.208-2.208v-7.506c0-1.215,0.993-2.208,2.208-2.208h15.637
	C86.828,103.604,87.821,104.597,87.821,105.812z M125.124,111.73v-5.919c0-1.215,0.993-2.208,2.208-2.208h5.919L125.124,111.73z
	 M109.134,163.076l2.463-2.463h15.384c1.215,0,2.208,0.993,2.208,2.208v7.505c0,1.215-0.993,2.208-2.208,2.208h-15.639
	c-1.215,0-2.208-0.993-2.208-2.208V163.076z M157.493,79.361c-0.765-0.94-1.902-1.521-3.258-1.521c-0.452,0-0.917,0.065-1.38,0.192
	l-5.241,1.443l-5.442-13.256c-1.541-3.756-6.099-6.812-10.159-6.812H81.079c-4.061,0-8.618,3.056-10.159,6.812l-5.435,13.237
	l-5.175-1.425c-0.463-0.127-0.928-0.192-1.38-0.192c-2.477,0-4.273,1.893-4.273,4.499v3.092c0,3.043,2.476,5.519,5.519,5.519h0.592
	l-0.879,2.14c-1.432,3.49-2.597,9.397-2.597,13.169v26.337c0,3.043,2.476,5.518,5.519,5.518h7.209c3.043,0,5.519-2.475,5.519-5.518
	v-6.577h35.298l-9.055,9.054l-0.104-0.028c-0.463-0.127-0.928-0.192-1.38-0.192c-2.477,0-4.273,1.893-4.273,4.499v1.479
	l-47.057,47.057c-13.011-16.767-20.768-37.804-20.768-60.62c0-54.628,44.442-99.071,99.069-99.071
	c22.817,0,43.854,7.758,60.622,20.769L157.493,79.361z"/>
<g>
</g>
<g>
</g>
<g>
</g>
<g>
</g>
<g>
</g>
<g>
</g>
<g>
</g>
<g>
</g>
<g>
</g>
<g>
</g>
<g>
</g>
<g>
</g>
<g>
</g>
<g>
</g>
<g>
</g>
</svg>
